HIERARCHY
ROOT hip
{
  OFFSET 0 0 0
  CHANNELS 6 Xposition Yposition Zposition Zrotation Yrotation Xrotation
  JOINT abdomen
  {
    OFFSET 0 20.6881 -0.73152
    CHANNELS 3 Zrotation Xrotation Yrotation
    JOINT chest
    {
      OFFSET 0 11.7043 -0.48768
      CHANNELS 3 Zrotation Xrotation Yrotation
      JOINT neck
      {
        OFFSET 0 22.1894 -2.19456
        CHANNELS 3 Zrotation Xrotation Yrotation
        JOINT head
        {
          OFFSET -0.24384 7.07133 1.2192
          CHANNELS 3 Zrotation Xrotation Yrotation
          JOINT leftEye
          {
            OFFSET 4.14528 8.04674 8.04672
            CHANNELS 3 Zrotation Xrotation Yrotation
            End Site
            {
              OFFSET 1 0 0
            }
          }
          JOINT rightEye
          {
            OFFSET -3.6576 8.04674 8.04672
            CHANNELS 3 Zrotation Xrotation Yrotation
            End Site
            {
              OFFSET 1 0 0
            }
          }
        }
      }
      JOINT rCollar
      {
        OFFSET -2.68224 19.2634 -4.8768
        CHANNELS 3 Zrotation Xrotation Yrotation
        JOINT rShldr
        {
          OFFSET -8.77824 -1.95073 1.46304
          CHANNELS 3 Zrotation Xrotation Yrotation
          JOINT rForeArm
          {
            OFFSET -28.1742 -1.7115 0.48768
            CHANNELS 3 Zrotation Xrotation Yrotation
            JOINT rHand
            {
              OFFSET -22.5879 0.773209 7.07136
              CHANNELS 3 Zrotation Xrotation Yrotation
              JOINT rThumb1
              {
                OFFSET -1.2192 -0.487915 3.41376
                CHANNELS 3 Zrotation Xrotation Yrotation
                JOINT rThumb2
                {
                  OFFSET -3.37035 -0.52449 3.41376
                  CHANNELS 3 Zrotation Xrotation Yrotation
                  End Site
                  {
                    OFFSET -1.78271 -1.18214 1.43049
                  }
                }
              }
              JOINT rIndex1
              {
                OFFSET -7.75947 0.938293 5.60832
                CHANNELS 3 Zrotation Xrotation Yrotation
                JOINT rIndex2
                {
                  OFFSET -2.54057 -0.884171 1.56538
                  CHANNELS 3 Zrotation Xrotation Yrotation
                  End Site
                  {
                    OFFSET -1.62519 -0.234802 1.16502
                  }
                }
              }
              JOINT rMid1
              {
                OFFSET -8.24714 1.18213 3.41376
                CHANNELS 3 Zrotation Xrotation Yrotation
                JOINT rMid2
                {
                  OFFSET -3.10165 -0.590103 1.0647
                  CHANNELS 3 Zrotation Xrotation Yrotation
                  End Site
                  {
                    OFFSET -2.48547 -0.328903 0.83742
                  }
                }
              }
              JOINT rRing1
              {
                OFFSET -8.82822 0.546677 1.51678
                CHANNELS 3 Zrotation Xrotation Yrotation
                JOINT rRing2
                {
                  OFFSET -2.60934 -0.819778 -0.0198488
                  CHANNELS 3 Zrotation Xrotation Yrotation
                  End Site
                  {
                    OFFSET -2.33842 -0.294052 0.168128
                  }
                }
              }
              JOINT rPinky1
              {
                OFFSET -8.27202 -0.0477905 -0.4584
                CHANNELS 3 Zrotation Xrotation Yrotation
                JOINT rPinky2
                {
                  OFFSET -1.82734 -0.647385 -0.700984
                  CHANNELS 3 Zrotation Xrotation Yrotation
                  End Site
                  {
                    OFFSET -1.69225 -0.51767 -0.607171
                  }
                }
              }
            }
          }
        }
      }
      JOINT lCollar
      {
        OFFSET 2.68224 19.2634 -4.8768
        CHANNELS 3 Zrotation Xrotation Yrotation
        JOINT lShldr
        {
          OFFSET 8.77824 -1.95073 1.46304
          CHANNELS 3 Zrotation Xrotation Yrotation
          JOINT lForeArm
          {
            OFFSET 28.1742 -1.7115 0.48768
            CHANNELS 3 Zrotation Xrotation Yrotation
            JOINT lHand
            {
              OFFSET 22.5879 0.773209 7.07136
              CHANNELS 3 Zrotation Xrotation Yrotation
              JOINT lThumb1
              {
                OFFSET 1.2192 -0.487915 3.41376
                CHANNELS 3 Zrotation Xrotation Yrotation
                JOINT lThumb2
                {
                  OFFSET 3.37035 -0.52449 3.41376
                  CHANNELS 3 Zrotation Xrotation Yrotation
                  End Site
                  {
                    OFFSET 1.78271 -1.18214 1.43049
                  }
                }
              }
              JOINT lIndex1
              {
                OFFSET 7.75947 0.938293 5.60832
                CHANNELS 3 Zrotation Xrotation Yrotation
                JOINT lIndex2
                {
                  OFFSET 2.54057 -0.884171 1.56538
                  CHANNELS 3 Zrotation Xrotation Yrotation
                  End Site
                  {
                    OFFSET 1.62519 -0.234802 1.16502
                  }
                }
              }
              JOINT lMid1
              {
                OFFSET 8.24714 1.18213 3.41376
                CHANNELS 3 Zrotation Xrotation Yrotation
                JOINT lMid2
                {
                  OFFSET 3.10165 -0.590103 1.0647
                  CHANNELS 3 Zrotation Xrotation Yrotation
                  End Site
                  {
                    OFFSET 2.48547 -0.328903 0.83742
                  }
                }
              }
              JOINT lRing1
              {
                OFFSET 8.82822 0.546677 1.51678
                CHANNELS 3 Zrotation Xrotation Yrotation
                JOINT lRing2
                {
                  OFFSET 2.60934 -0.819778 -0.0198488
                  CHANNELS 3 Zrotation Xrotation Yrotation
                  End Site
                  {
                    OFFSET 2.33842 -0.294052 0.168128
                  }
                }
              }
              JOINT lPinky1
              {
                OFFSET 8.27202 -0.0477905 -0.4584
                CHANNELS 3 Zrotation Xrotation Yrotation
                JOINT lPinky2
                {
                  OFFSET 1.82734 -0.647385 -0.700984
                  CHANNELS 3 Zrotation Xrotation Yrotation
                  End Site
                  {
                    OFFSET 1.69225 -0.51767 -0.607171
                  }
                }
              }
            }
          }
        }
      }
    }
  }
  JOINT rButtock
  {
    OFFSET -8.77824 4.35084 1.2192
    CHANNELS 3 Zrotation Xrotation Yrotation
    JOINT rThigh
    {
      OFFSET 0 -1.70687 -2.19456
      CHANNELS 3 Zrotation Xrotation Yrotation
      JOINT rShin
      {
        OFFSET 0 -36.8199 0.73152
        CHANNELS 3 Zrotation Xrotation Yrotation
        JOINT rFoot
        {
          OFFSET 0.73152 -45.1104 -5.12064
          CHANNELS 3 Zrotation Xrotation Yrotation
          End Site
          {
            OFFSET -1.1221 -3.69964 12.103
          }
        }
      }
    }
  }
  JOINT lButtock
  {
    OFFSET 8.77824 4.35084 1.2192
    CHANNELS 3 Zrotation Xrotation Yrotation
    JOINT lThigh
    {
      OFFSET 0 -1.70687 -2.19456
      CHANNELS 3 Zrotation Xrotation Yrotation
      JOINT lShin
      {
        OFFSET 0 -36.8199 0.73152
        CHANNELS 3 Zrotation Xrotation Yrotation
        JOINT lFoot
        {
          OFFSET -0.73152 -45.1104 -5.12064
          CHANNELS 3 Zrotation Xrotation Yrotation
          End Site
          {
            OFFSET 1.1221 -3.69964 12.103
          }
        }
      }
    }
  }
}
MOTION
Frames:	4
Frame Time:	0.00833333
14.6414 83.5757 -5.17422 -187.02 70.401 170.719 -12.4786 13.3401 3.38745 -0.423407 1.66679 0.649188 1.44969 9.41117 -2.11425 9.46875 -10.1386 -2.72686 -0.0 0.0 0.0 -0.0 0.0 0.0 -8.02758e-14 -2.06772e-13 2.28043e-14 81.4519 37.5791 -0.987378 -17.6693 -10.3348 33.2847 -0.688722 -22.8831 -3.40077 1.58753e-09 1.50405e-10 -4.00391e-10 2.74897e-09 2.56534e-10 -6.66553e-10 1.58753e-09 1.50413e-10 -4.00408e-10 7.73091 5.47488 0.417314 1.58753e-09 1.50412e-10 -4.00398e-10 2.90554 0.965183 0.102902 1.58753e-09 1.50413e-10 -4.00393e-10 10.2786 0.731801 0.0259123 1.58752e-09 1.50414e-10 -4.00382e-10 2.22167 -0.733487 -0.20892 -8.03078e-14 -2.06781e-13 2.25679e-14 -70.7825 13.2092 -2.48091 11.5772 -5.1566 -20.7943 0.0648814 -7.24814 1.02418 1.0983e-09 1.57558e-09 8.55491e-10 1.89275e-09 2.73111e-09 1.48486e-09 1.0983e-09 1.57558e-09 8.55495e-10 -7.73091 5.47488 -0.417314 1.0983e-09 1.57558e-09 8.55499e-10 -2.90554 0.965183 -0.102902 1.09829e-09 1.57558e-09 8.55491e-10 -10.2786 0.731801 -0.0259123 1.0983e-09 1.57558e-09 8.55484e-10 -2.22167 -0.733487 0.20892 -2.03217e-16 0.0 -3.88251e-19 4.07678 -22.6506 1.24492 -1.96077 69.2846 2.33622 -1.74289 1.24897 -14.3183 2.03217e-16 0.0 3.88251e-19 -7.19859 -12.8734 -12.0104 0.107285 29.1387 -0.29861 6.84179 -14.7176 20.2295
15.9377 83.569 -5.83424 -187.421 71.089 170.165 -12.5044 13.5891 3.24192 -0.334546 1.55005 0.604885 1.6433 9.3592 -1.90801 9.03411 -9.86518 -2.40639 -0.0 0.0 0.0 -0.0 0.0 0.0 -6.36049e-14 -4.14258e-13 -8.25453e-14 81.6141 36.9911 -1.33945 -17.5307 -10.1909 32.9758 -0.667677 -22.558 -3.34687 1.84904e-09 2.37778e-10 -4.51957e-10 3.20455e-09 4.07661e-10 -7.51458e-10 1.84904e-09 2.37787e-10 -4.5197e-10 7.73091 5.47488 0.417314 1.84904e-09 2.37786e-10 -4.51963e-10 2.90554 0.965183 0.102902 1.84905e-09 2.37788e-10 -4.5196e-10 10.2786 0.731801 0.0259123 1.84904e-09 2.37788e-10 -4.51947e-10 2.22167 -0.733487 -0.20892 -6.36711e-14 -4.14277e-13 -8.27938e-14 -70.9191 13.1551 -2.796 11.5416 -5.13223 -20.726 0.0645888 -7.23254 1.02195 1.17393e-09 6.4092e-10 -1.77564e-10 2.02744e-09 1.11433e-09 -3.01486e-10 1.17392e-09 6.40921e-10 -1.77561e-10 -7.73091 5.47488 -0.417314 1.17393e-09 6.40921e-10 -1.77558e-10 -2.90554 0.965183 -0.102902 1.17392e-09 6.4092e-10 -1.77566e-10 -10.2786 0.731801 -0.0259123 1.17393e-09 6.4092e-10 -1.77574e-10 -2.22167 -0.733487 0.20892 -2.03217e-16 0.0 -3.88251e-19 4.12852 -25.0721 1.34715 -2.00378 69.5906 2.42017 -2.39957 -0.563875 -15.7932 2.03217e-16 0.0 3.88251e-19 -7.35716 -11.3791 -11.6748 0.0874077 28.7211 -0.361305 7.31073 -15.3893 20.9128
17.2593 83.5331 -6.49 -187.946 71.7087 169.494 -12.5431 13.8225 3.01657 -0.20166 1.43173 0.543329 1.8602 9.29031 -1.71668 8.5582 -9.55137 -2.12134 -0.0 0.0 0.0 -0.0 0.0 0.0 4.49836e-15 -7.35049e-13 -2.82176e-13 81.7313 36.3655 -1.62275 -17.3569 -10.0133 32.5887 -0.638955 -22.1085 -3.27268 1.3468e-09 3.16082e-10 -6.33264e-10 2.34017e-09 5.46006e-10 -1.07247e-09 1.3468e-09 3.16089e-10 -6.33273e-10 7.73091 5.47488 0.417314 1.3468e-09 3.16088e-10 -6.33265e-10 2.90554 0.965183 0.102902 1.34681e-09 3.16091e-10 -6.33268e-10 10.2786 0.731801 0.0259123 1.3468e-09 3.16091e-10 -6.33255e-10 2.22167 -0.733487 -0.20892 4.43031e-15 -7.35075e-13 -2.82397e-13 -71.099 13.0307 -3.0533 11.5208 -5.11791 -20.6866 0.0651274 -7.25429 1.02508 1.09267e-09 -1.05946e-09 -8.33895e-10 1.89195e-09 -1.82936e-09 -1.43763e-09 1.09267e-09 -1.05946e-09 -8.33891e-10 -7.73091 5.47488 -0.417314 1.09268e-09 -1.05946e-09 -8.3389e-10 -2.90554 0.965183 -0.102902 1.09267e-09 -1.05946e-09 -8.33897e-10 -10.2786 0.731801 -0.0259123 1.09268e-09 -1.05946e-09 -8.33905e-10 -2.22167 -0.733487 0.20892 -2.03217e-16 0.0 -3.88251e-19 4.14346 -27.202 1.49202 -1.91548 69.0007 2.37416 -2.99512 -2.12871 -16.8613 2.03217e-16 0.0 3.88251e-19 -7.56473 -9.8951 -11.3683 0.0693665 28.3284 -0.435357 7.81211 -16.1563 21.5078
18.607 83.4865 -7.13622 -188.574 72.2544 168.73 -12.5187 14.0329 2.73577 -0.0436941 1.31001 0.472994 2.10154 9.21167 -1.53099 8.02465 -9.20113 -1.85585 -0.0 0.0 0.0 -0.0 0.0 0.0 1.10312e-13 -1.15363e-12 -5.61623e-13 81.8142 35.6925 -1.85415 -17.1458 -9.79936 32.1247 -0.605012 -21.5552 -3.18217 3.48363e-10 3.94868e-10 -9.04898e-10 6.18681e-10 6.87121e-10 -1.55729e-09 3.48362e-10 3.94871e-10 -9.04905e-10 7.73091 5.47488 0.417314 3.48355e-10 3.94869e-10 -9.04892e-10 2.90554 0.965183 0.102902 3.48369e-10 3.94874e-10 -9.04903e-10 10.2786 0.731801 0.0259123 3.48358e-10 3.94874e-10 -9.04891e-10 2.22167 -0.733487 -0.20892 1.1026e-13 -1.15366e-12 -5.61793e-13 -71.3249 12.8303 -3.27213 11.5078 -5.10873 -20.6622 0.0660856 -7.29331 1.0307 9.13458e-10 -3.47411e-09 -1.41321e-09 1.58858e-09 -6.01033e-09 -2.44156e-09 9.13452e-10 -3.47411e-09 -1.41321e-09 -7.73091 5.47488 -0.417314 9.13459e-10 -3.47411e-09 -1.41321e-09 -2.90554 0.965183 -0.102902 9.13454e-10 -3.47411e-09 -1.41322e-09 -10.2786 0.731801 -0.0259123 9.13467e-10 -3.47412e-09 -1.41323e-09 -2.22167 -0.733487 0.20892 -2.03217e-16 0.0 -3.88251e-19 4.23162 -29.09 1.7267 -1.71864 67.5574 2.22544 -3.58137 -3.67148 -17.6486 2.03217e-16 0.0 3.88251e-19 -7.76916 -8.42391 -11.1032 0.0515593 27.9676 -0.523806 8.36002 -17.0011 22.0734
